<mxfile host="app.diagrams.net" agent="Mozilla/5.0 (Macintosh; Intel Mac OS X 10_15_7) AppleWebKit/605.1.15 (KHTML, like Gecko) Version/17.5 Safari/605.1.15" version="26.2.5">
  <diagram name="페이지-1" id="38zYhFKxZBwkpCwip8eT">
    <mxGraphModel dx="654" dy="394" grid="1" gridSize="10" guides="1" tooltips="1" connect="1" arrows="1" fold="1" page="1" pageScale="1" pageWidth="827" pageHeight="1169" math="0" shadow="0">
      <root>
        <mxCell id="0" />
        <mxCell id="1" parent="0" />
        <mxCell id="eCZhi4n0righIeJiYxFv-3" value="" style="rounded=0;whiteSpace=wrap;html=1;" vertex="1" parent="1">
          <mxGeometry x="90" y="70" width="550" height="300" as="geometry" />
        </mxCell>
        <mxCell id="eCZhi4n0righIeJiYxFv-7" style="edgeStyle=orthogonalEdgeStyle;rounded=0;orthogonalLoop=1;jettySize=auto;html=1;entryX=0;entryY=0.5;entryDx=0;entryDy=0;" edge="1" parent="1" source="eCZhi4n0righIeJiYxFv-2" target="eCZhi4n0righIeJiYxFv-6">
          <mxGeometry relative="1" as="geometry" />
        </mxCell>
        <mxCell id="eCZhi4n0righIeJiYxFv-2" value="Database&lt;div&gt;(MySQL)&lt;/div&gt;" style="shape=cylinder3;whiteSpace=wrap;html=1;boundedLbl=1;backgroundOutline=1;size=15;" vertex="1" parent="1">
          <mxGeometry x="110" y="200" width="60" height="80" as="geometry" />
        </mxCell>
        <mxCell id="eCZhi4n0righIeJiYxFv-4" value="Automation EDA + Deep Learning Architecture" style="text;html=1;align=center;verticalAlign=middle;resizable=0;points=[];autosize=1;strokeColor=none;fillColor=none;" vertex="1" parent="1">
          <mxGeometry x="90" y="70" width="270" height="30" as="geometry" />
        </mxCell>
        <mxCell id="eCZhi4n0righIeJiYxFv-21" style="edgeStyle=orthogonalEdgeStyle;rounded=0;orthogonalLoop=1;jettySize=auto;html=1;entryX=0;entryY=0.5;entryDx=0;entryDy=0;" edge="1" parent="1" source="eCZhi4n0righIeJiYxFv-6" target="eCZhi4n0righIeJiYxFv-11">
          <mxGeometry relative="1" as="geometry" />
        </mxCell>
        <mxCell id="eCZhi4n0righIeJiYxFv-6" value="Ai Server" style="rounded=1;whiteSpace=wrap;html=1;" vertex="1" parent="1">
          <mxGeometry x="190" y="220" width="80" height="40" as="geometry" />
        </mxCell>
        <mxCell id="eCZhi4n0righIeJiYxFv-23" style="edgeStyle=orthogonalEdgeStyle;rounded=0;orthogonalLoop=1;jettySize=auto;html=1;entryX=0;entryY=0.5;entryDx=0;entryDy=0;" edge="1" parent="1" source="eCZhi4n0righIeJiYxFv-9" target="eCZhi4n0righIeJiYxFv-22">
          <mxGeometry relative="1" as="geometry" />
        </mxCell>
        <mxCell id="eCZhi4n0righIeJiYxFv-9" value="Generation EDA" style="rounded=1;whiteSpace=wrap;html=1;" vertex="1" parent="1">
          <mxGeometry x="327" y="300" width="106" height="30" as="geometry" />
        </mxCell>
        <mxCell id="eCZhi4n0righIeJiYxFv-13" style="edgeStyle=orthogonalEdgeStyle;rounded=0;orthogonalLoop=1;jettySize=auto;html=1;entryX=0.5;entryY=0;entryDx=0;entryDy=0;" edge="1" parent="1" source="eCZhi4n0righIeJiYxFv-11" target="eCZhi4n0righIeJiYxFv-12">
          <mxGeometry relative="1" as="geometry" />
        </mxCell>
        <mxCell id="eCZhi4n0righIeJiYxFv-11" value="초기 결측치 처리" style="rounded=1;whiteSpace=wrap;html=1;" vertex="1" parent="1">
          <mxGeometry x="335" y="120" width="90" height="20" as="geometry" />
        </mxCell>
        <mxCell id="eCZhi4n0righIeJiYxFv-17" style="edgeStyle=orthogonalEdgeStyle;rounded=0;orthogonalLoop=1;jettySize=auto;html=1;entryX=0.5;entryY=0;entryDx=0;entryDy=0;" edge="1" parent="1" source="eCZhi4n0righIeJiYxFv-12" target="eCZhi4n0righIeJiYxFv-14">
          <mxGeometry relative="1" as="geometry" />
        </mxCell>
        <mxCell id="eCZhi4n0righIeJiYxFv-12" value="사전 학습 Deep Learning 기반 결측치 재 처리" style="rounded=1;whiteSpace=wrap;html=1;" vertex="1" parent="1">
          <mxGeometry x="320" y="160" width="120" height="40" as="geometry" />
        </mxCell>
        <mxCell id="eCZhi4n0righIeJiYxFv-18" style="edgeStyle=orthogonalEdgeStyle;rounded=0;orthogonalLoop=1;jettySize=auto;html=1;" edge="1" parent="1" source="eCZhi4n0righIeJiYxFv-14" target="eCZhi4n0righIeJiYxFv-15">
          <mxGeometry relative="1" as="geometry" />
        </mxCell>
        <mxCell id="eCZhi4n0righIeJiYxFv-14" value="Data Scaling" style="rounded=1;whiteSpace=wrap;html=1;" vertex="1" parent="1">
          <mxGeometry x="322.5" y="210" width="115" height="30" as="geometry" />
        </mxCell>
        <mxCell id="eCZhi4n0righIeJiYxFv-20" style="edgeStyle=orthogonalEdgeStyle;rounded=0;orthogonalLoop=1;jettySize=auto;html=1;entryX=0.5;entryY=0;entryDx=0;entryDy=0;" edge="1" parent="1" source="eCZhi4n0righIeJiYxFv-15" target="eCZhi4n0righIeJiYxFv-9">
          <mxGeometry relative="1" as="geometry" />
        </mxCell>
        <mxCell id="eCZhi4n0righIeJiYxFv-15" value="이상치 처리" style="rounded=1;whiteSpace=wrap;html=1;" vertex="1" parent="1">
          <mxGeometry x="322.5" y="250" width="115" height="30" as="geometry" />
        </mxCell>
        <mxCell id="eCZhi4n0righIeJiYxFv-22" value="Deep Learning Predict" style="rounded=1;whiteSpace=wrap;html=1;" vertex="1" parent="1">
          <mxGeometry x="480" y="210" width="90" height="30" as="geometry" />
        </mxCell>
        <mxCell id="eCZhi4n0righIeJiYxFv-24" value="생성된 EDA 추가 자료를 활용해 최종 딥러닝 예측" style="text;html=1;align=center;verticalAlign=middle;whiteSpace=wrap;rounded=0;" vertex="1" parent="1">
          <mxGeometry x="463.75" y="250" width="122.5" height="20" as="geometry" />
        </mxCell>
      </root>
    </mxGraphModel>
  </diagram>
</mxfile>
